<mxfile host="www.draw.io" modified="2020-02-03T01:28:01.563Z" agent="Mozilla/5.0 (Macintosh; Intel Mac OS X 10_14_6) AppleWebKit/537.36 (KHTML, like Gecko) Chrome/78.0.3904.108 Safari/537.36" etag="o6chE7hiOBpXm_2-r8sH" version="12.6.4" type="github">
  <diagram id="yNR6yPrqRglq0oeF5hS5" name="Page-1">
    <mxGraphModel dx="1773" dy="554" grid="1" gridSize="10" guides="1" tooltips="1" connect="1" arrows="1" fold="1" page="1" pageScale="1" pageWidth="827" pageHeight="1169" math="0" shadow="0">
      <root>
        <mxCell id="0"/>
        <mxCell id="1" parent="0"/>
        <mxCell id="lMsgz_5FlAVxc4RHLTfQ-1" value="Course" style="rounded=0;whiteSpace=wrap;html=1;fillColor=#f8cecc;strokeColor=#b85450;" parent="1" vertex="1">
          <mxGeometry x="90" y="135" width="90" height="30" as="geometry"/>
        </mxCell>
        <mxCell id="lMsgz_5FlAVxc4RHLTfQ-2" value="ID&lt;br&gt;" style="ellipse;whiteSpace=wrap;html=1;fillColor=#d5e8d4;strokeColor=#82b366;" parent="1" vertex="1">
          <mxGeometry x="60" y="45" width="60" height="40" as="geometry"/>
        </mxCell>
        <mxCell id="lMsgz_5FlAVxc4RHLTfQ-3" value="" style="endArrow=none;html=1;entryX=0.25;entryY=0;entryDx=0;entryDy=0;" parent="1" source="lMsgz_5FlAVxc4RHLTfQ-2" target="lMsgz_5FlAVxc4RHLTfQ-1" edge="1">
          <mxGeometry width="50" height="50" relative="1" as="geometry">
            <mxPoint x="170" y="290" as="sourcePoint"/>
            <mxPoint x="220" y="190" as="targetPoint"/>
          </mxGeometry>
        </mxCell>
        <mxCell id="lMsgz_5FlAVxc4RHLTfQ-4" value="title" style="ellipse;whiteSpace=wrap;html=1;fillColor=#d5e8d4;strokeColor=#82b366;" parent="1" vertex="1">
          <mxGeometry x="150" y="45" width="80" height="40" as="geometry"/>
        </mxCell>
        <mxCell id="lMsgz_5FlAVxc4RHLTfQ-5" value="" style="endArrow=none;html=1;entryX=0.375;entryY=0.95;entryDx=0;entryDy=0;entryPerimeter=0;exitX=0.5;exitY=0;exitDx=0;exitDy=0;" parent="1" source="lMsgz_5FlAVxc4RHLTfQ-1" target="lMsgz_5FlAVxc4RHLTfQ-4" edge="1">
          <mxGeometry width="50" height="50" relative="1" as="geometry">
            <mxPoint x="170" y="290" as="sourcePoint"/>
            <mxPoint x="220" y="240" as="targetPoint"/>
          </mxGeometry>
        </mxCell>
        <mxCell id="lMsgz_5FlAVxc4RHLTfQ-6" value="End date" style="ellipse;whiteSpace=wrap;html=1;fillColor=#d5e8d4;strokeColor=#82b366;" parent="1" vertex="1">
          <mxGeometry x="20" y="220" width="60" height="40" as="geometry"/>
        </mxCell>
        <mxCell id="lMsgz_5FlAVxc4RHLTfQ-7" value="" style="endArrow=none;html=1;exitX=1;exitY=0;exitDx=0;exitDy=0;entryX=0.167;entryY=1.033;entryDx=0;entryDy=0;entryPerimeter=0;" parent="1" source="lMsgz_5FlAVxc4RHLTfQ-6" target="lMsgz_5FlAVxc4RHLTfQ-1" edge="1">
          <mxGeometry width="50" height="50" relative="1" as="geometry">
            <mxPoint x="130" y="370" as="sourcePoint"/>
            <mxPoint x="207" y="219" as="targetPoint"/>
          </mxGeometry>
        </mxCell>
        <mxCell id="lMsgz_5FlAVxc4RHLTfQ-8" value="Start Date" style="ellipse;whiteSpace=wrap;html=1;fillColor=#d5e8d4;strokeColor=#82b366;" parent="1" vertex="1">
          <mxGeometry x="-30" y="110" width="70" height="30" as="geometry"/>
        </mxCell>
        <mxCell id="lMsgz_5FlAVxc4RHLTfQ-9" value="" style="endArrow=none;html=1;exitX=0.629;exitY=1;exitDx=0;exitDy=0;exitPerimeter=0;entryX=0;entryY=0.5;entryDx=0;entryDy=0;" parent="1" source="lMsgz_5FlAVxc4RHLTfQ-8" target="lMsgz_5FlAVxc4RHLTfQ-1" edge="1">
          <mxGeometry width="50" height="50" relative="1" as="geometry">
            <mxPoint x="130" y="370" as="sourcePoint"/>
            <mxPoint x="230" y="220" as="targetPoint"/>
          </mxGeometry>
        </mxCell>
        <mxCell id="lMsgz_5FlAVxc4RHLTfQ-11" value="" style="endArrow=none;html=1;entryX=0.5;entryY=1;entryDx=0;entryDy=0;exitX=0;exitY=0.5;exitDx=0;exitDy=0;" parent="1" source="lMsgz_5FlAVxc4RHLTfQ-92" target="lMsgz_5FlAVxc4RHLTfQ-1" edge="1">
          <mxGeometry width="50" height="50" relative="1" as="geometry">
            <mxPoint x="188.78679656440363" y="229.39339828220182" as="sourcePoint"/>
            <mxPoint x="180" y="330" as="targetPoint"/>
          </mxGeometry>
        </mxCell>
        <mxCell id="6eNMQlemD6CoiYL7Ca_S-4" value="m" style="text;html=1;align=center;verticalAlign=middle;resizable=0;points=[];labelBackgroundColor=#ffffff;" parent="lMsgz_5FlAVxc4RHLTfQ-11" vertex="1" connectable="0">
          <mxGeometry x="0.1337" y="-2" relative="1" as="geometry">
            <mxPoint y="1" as="offset"/>
          </mxGeometry>
        </mxCell>
        <mxCell id="lMsgz_5FlAVxc4RHLTfQ-12" value="offer" style="rhombus;whiteSpace=wrap;html=1;fillColor=#dae8fc;strokeColor=#6c8ebf;" parent="1" vertex="1">
          <mxGeometry x="270" y="232.5" width="80" height="40" as="geometry"/>
        </mxCell>
        <mxCell id="lMsgz_5FlAVxc4RHLTfQ-13" value="" style="endArrow=none;html=1;entryX=0;entryY=0.5;entryDx=0;entryDy=0;exitX=1;exitY=0.5;exitDx=0;exitDy=0;" parent="1" source="lMsgz_5FlAVxc4RHLTfQ-1" target="lMsgz_5FlAVxc4RHLTfQ-12" edge="1">
          <mxGeometry width="50" height="50" relative="1" as="geometry">
            <mxPoint x="130" y="380" as="sourcePoint"/>
            <mxPoint x="290" y="210" as="targetPoint"/>
          </mxGeometry>
        </mxCell>
        <mxCell id="6eNMQlemD6CoiYL7Ca_S-6" value="1" style="text;html=1;align=center;verticalAlign=middle;resizable=0;points=[];labelBackgroundColor=#ffffff;" parent="lMsgz_5FlAVxc4RHLTfQ-13" vertex="1" connectable="0">
          <mxGeometry x="0.1407" y="2" relative="1" as="geometry">
            <mxPoint as="offset"/>
          </mxGeometry>
        </mxCell>
        <mxCell id="lMsgz_5FlAVxc4RHLTfQ-14" value="" style="endArrow=none;html=1;exitX=1;exitY=0.5;exitDx=0;exitDy=0;entryX=0;entryY=0.5;entryDx=0;entryDy=0;" parent="1" source="lMsgz_5FlAVxc4RHLTfQ-12" target="lMsgz_5FlAVxc4RHLTfQ-15" edge="1">
          <mxGeometry width="50" height="50" relative="1" as="geometry">
            <mxPoint x="403" y="302.5" as="sourcePoint"/>
            <mxPoint x="460" y="252.5" as="targetPoint"/>
          </mxGeometry>
        </mxCell>
        <mxCell id="6eNMQlemD6CoiYL7Ca_S-7" value="n" style="text;html=1;align=center;verticalAlign=middle;resizable=0;points=[];labelBackgroundColor=#ffffff;" parent="lMsgz_5FlAVxc4RHLTfQ-14" vertex="1" connectable="0">
          <mxGeometry x="0.607" y="-3" relative="1" as="geometry">
            <mxPoint x="-9.8" y="-2.49" as="offset"/>
          </mxGeometry>
        </mxCell>
        <mxCell id="lMsgz_5FlAVxc4RHLTfQ-15" value="assignment" style="rounded=0;whiteSpace=wrap;html=1;fillColor=#f8cecc;strokeColor=#b85450;" parent="1" vertex="1">
          <mxGeometry x="400" y="237.5" width="80" height="35" as="geometry"/>
        </mxCell>
        <mxCell id="lMsgz_5FlAVxc4RHLTfQ-16" value="ID" style="ellipse;whiteSpace=wrap;html=1;fillColor=#d5e8d4;strokeColor=#82b366;" parent="1" vertex="1">
          <mxGeometry x="360" y="157.5" width="60" height="20" as="geometry"/>
        </mxCell>
        <mxCell id="lMsgz_5FlAVxc4RHLTfQ-17" value="Deadling" style="ellipse;whiteSpace=wrap;html=1;fillColor=#d5e8d4;strokeColor=#82b366;" parent="1" vertex="1">
          <mxGeometry x="460" y="152.5" width="50" height="30" as="geometry"/>
        </mxCell>
        <mxCell id="lMsgz_5FlAVxc4RHLTfQ-18" value="Content" style="ellipse;whiteSpace=wrap;html=1;fillColor=#d5e8d4;strokeColor=#82b366;" parent="1" vertex="1">
          <mxGeometry x="405" y="297.5" width="70" height="30" as="geometry"/>
        </mxCell>
        <mxCell id="lMsgz_5FlAVxc4RHLTfQ-19" value="" style="endArrow=none;html=1;entryX=0.5;entryY=1;entryDx=0;entryDy=0;exitX=0.25;exitY=0;exitDx=0;exitDy=0;" parent="1" source="lMsgz_5FlAVxc4RHLTfQ-15" target="lMsgz_5FlAVxc4RHLTfQ-16" edge="1">
          <mxGeometry width="50" height="50" relative="1" as="geometry">
            <mxPoint x="100" y="482.5" as="sourcePoint"/>
            <mxPoint x="370" y="262.5" as="targetPoint"/>
          </mxGeometry>
        </mxCell>
        <mxCell id="lMsgz_5FlAVxc4RHLTfQ-20" value="" style="endArrow=none;html=1;exitX=0.675;exitY=0.033;exitDx=0;exitDy=0;exitPerimeter=0;entryX=0.5;entryY=1;entryDx=0;entryDy=0;" parent="1" source="lMsgz_5FlAVxc4RHLTfQ-15" target="lMsgz_5FlAVxc4RHLTfQ-17" edge="1">
          <mxGeometry width="50" height="50" relative="1" as="geometry">
            <mxPoint x="420" y="252.51" as="sourcePoint"/>
            <mxPoint x="460" y="202.5" as="targetPoint"/>
          </mxGeometry>
        </mxCell>
        <mxCell id="lMsgz_5FlAVxc4RHLTfQ-21" value="" style="endArrow=none;html=1;entryX=0.5;entryY=1;entryDx=0;entryDy=0;exitX=0.5;exitY=0;exitDx=0;exitDy=0;" parent="1" source="lMsgz_5FlAVxc4RHLTfQ-18" target="lMsgz_5FlAVxc4RHLTfQ-15" edge="1">
          <mxGeometry width="50" height="50" relative="1" as="geometry">
            <mxPoint x="430" y="262.51" as="sourcePoint"/>
            <mxPoint x="420" y="212.5" as="targetPoint"/>
          </mxGeometry>
        </mxCell>
        <mxCell id="lMsgz_5FlAVxc4RHLTfQ-22" value="answer" style="rhombus;whiteSpace=wrap;html=1;fillColor=#dae8fc;strokeColor=#6c8ebf;" parent="1" vertex="1">
          <mxGeometry x="520" y="237.5" width="50" height="30" as="geometry"/>
        </mxCell>
        <mxCell id="lMsgz_5FlAVxc4RHLTfQ-23" value="" style="endArrow=none;html=1;entryX=1;entryY=0.5;entryDx=0;entryDy=0;exitX=0;exitY=0.5;exitDx=0;exitDy=0;" parent="1" source="lMsgz_5FlAVxc4RHLTfQ-22" target="lMsgz_5FlAVxc4RHLTfQ-15" edge="1">
          <mxGeometry width="50" height="50" relative="1" as="geometry">
            <mxPoint x="480" y="272.51" as="sourcePoint"/>
            <mxPoint x="470" y="222.5" as="targetPoint"/>
          </mxGeometry>
        </mxCell>
        <mxCell id="6eNMQlemD6CoiYL7Ca_S-11" value="m" style="text;html=1;align=center;verticalAlign=middle;resizable=0;points=[];labelBackgroundColor=#ffffff;" parent="lMsgz_5FlAVxc4RHLTfQ-23" vertex="1" connectable="0">
          <mxGeometry x="0.0506" relative="1" as="geometry">
            <mxPoint as="offset"/>
          </mxGeometry>
        </mxCell>
        <mxCell id="lMsgz_5FlAVxc4RHLTfQ-24" value="user" style="rounded=0;whiteSpace=wrap;html=1;fillColor=#f8cecc;strokeColor=#b85450;" parent="1" vertex="1">
          <mxGeometry x="610" y="140" width="60" height="20" as="geometry"/>
        </mxCell>
        <mxCell id="lMsgz_5FlAVxc4RHLTfQ-25" value="" style="endArrow=none;html=1;entryX=1;entryY=0.5;entryDx=0;entryDy=0;exitX=0;exitY=0.5;exitDx=0;exitDy=0;" parent="1" source="lMsgz_5FlAVxc4RHLTfQ-24" target="lMsgz_5FlAVxc4RHLTfQ-22" edge="1">
          <mxGeometry width="50" height="50" relative="1" as="geometry">
            <mxPoint x="420" y="180.01" as="sourcePoint"/>
            <mxPoint x="410" y="130" as="targetPoint"/>
          </mxGeometry>
        </mxCell>
        <mxCell id="6eNMQlemD6CoiYL7Ca_S-10" value="1" style="text;html=1;align=center;verticalAlign=middle;resizable=0;points=[];labelBackgroundColor=#ffffff;" parent="lMsgz_5FlAVxc4RHLTfQ-25" vertex="1" connectable="0">
          <mxGeometry x="-0.1529" y="-1" relative="1" as="geometry">
            <mxPoint as="offset"/>
          </mxGeometry>
        </mxCell>
        <mxCell id="lMsgz_5FlAVxc4RHLTfQ-26" value="ID" style="ellipse;whiteSpace=wrap;html=1;fillColor=#d5e8d4;strokeColor=#82b366;" parent="1" vertex="1">
          <mxGeometry x="550" y="50" width="60" height="30" as="geometry"/>
        </mxCell>
        <mxCell id="lMsgz_5FlAVxc4RHLTfQ-27" value="name" style="ellipse;whiteSpace=wrap;html=1;fillColor=#d5e8d4;strokeColor=#82b366;" parent="1" vertex="1">
          <mxGeometry x="650" y="55" width="50" height="20" as="geometry"/>
        </mxCell>
        <mxCell id="lMsgz_5FlAVxc4RHLTfQ-28" value="email address" style="ellipse;whiteSpace=wrap;html=1;fillColor=#d5e8d4;strokeColor=#82b366;" parent="1" vertex="1">
          <mxGeometry x="750" y="202.5" width="50" height="30" as="geometry"/>
        </mxCell>
        <mxCell id="lMsgz_5FlAVxc4RHLTfQ-29" value="date of birth" style="ellipse;whiteSpace=wrap;html=1;fillColor=#d5e8d4;strokeColor=#82b366;" parent="1" vertex="1">
          <mxGeometry x="750" y="142.5" width="60" height="40" as="geometry"/>
        </mxCell>
        <mxCell id="lMsgz_5FlAVxc4RHLTfQ-30" value="" style="endArrow=none;html=1;exitX=0.117;exitY=0.05;exitDx=0;exitDy=0;exitPerimeter=0;entryX=0.5;entryY=1;entryDx=0;entryDy=0;" parent="1" source="lMsgz_5FlAVxc4RHLTfQ-24" target="lMsgz_5FlAVxc4RHLTfQ-26" edge="1">
          <mxGeometry width="50" height="50" relative="1" as="geometry">
            <mxPoint x="430" y="190.01" as="sourcePoint"/>
            <mxPoint x="550" y="130" as="targetPoint"/>
          </mxGeometry>
        </mxCell>
        <mxCell id="lMsgz_5FlAVxc4RHLTfQ-31" value="" style="endArrow=none;html=1;exitX=0.633;exitY=-0.05;exitDx=0;exitDy=0;exitPerimeter=0;entryX=0.5;entryY=1;entryDx=0;entryDy=0;" parent="1" source="lMsgz_5FlAVxc4RHLTfQ-24" target="lMsgz_5FlAVxc4RHLTfQ-27" edge="1">
          <mxGeometry width="50" height="50" relative="1" as="geometry">
            <mxPoint x="440" y="200.01" as="sourcePoint"/>
            <mxPoint x="680" y="100" as="targetPoint"/>
          </mxGeometry>
        </mxCell>
        <mxCell id="lMsgz_5FlAVxc4RHLTfQ-32" value="" style="endArrow=none;html=1;entryX=0.75;entryY=1;entryDx=0;entryDy=0;exitX=0.5;exitY=0;exitDx=0;exitDy=0;" parent="1" source="lMsgz_5FlAVxc4RHLTfQ-28" target="lMsgz_5FlAVxc4RHLTfQ-24" edge="1">
          <mxGeometry width="50" height="50" relative="1" as="geometry">
            <mxPoint x="450" y="210.01" as="sourcePoint"/>
            <mxPoint x="440" y="160" as="targetPoint"/>
          </mxGeometry>
        </mxCell>
        <mxCell id="lMsgz_5FlAVxc4RHLTfQ-33" value="" style="endArrow=none;html=1;entryX=1;entryY=0.5;entryDx=0;entryDy=0;" parent="1" source="lMsgz_5FlAVxc4RHLTfQ-29" target="lMsgz_5FlAVxc4RHLTfQ-24" edge="1">
          <mxGeometry width="50" height="50" relative="1" as="geometry">
            <mxPoint x="460" y="220.01" as="sourcePoint"/>
            <mxPoint x="450" y="170" as="targetPoint"/>
          </mxGeometry>
        </mxCell>
        <mxCell id="lMsgz_5FlAVxc4RHLTfQ-34" value="instructor" style="rounded=0;whiteSpace=wrap;html=1;fillColor=#f8cecc;strokeColor=#b85450;" parent="1" vertex="1">
          <mxGeometry x="75" y="327.5" width="90" height="30" as="geometry"/>
        </mxCell>
        <mxCell id="lMsgz_5FlAVxc4RHLTfQ-35" value="name" style="ellipse;whiteSpace=wrap;html=1;fillColor=#d5e8d4;strokeColor=#82b366;" parent="1" vertex="1">
          <mxGeometry x="-10" y="327.5" width="50" height="32.5" as="geometry"/>
        </mxCell>
        <mxCell id="lMsgz_5FlAVxc4RHLTfQ-36" value="gender" style="ellipse;whiteSpace=wrap;html=1;fillColor=#d5e8d4;strokeColor=#82b366;" parent="1" vertex="1">
          <mxGeometry x="15" y="380" width="60" height="30" as="geometry"/>
        </mxCell>
        <mxCell id="lMsgz_5FlAVxc4RHLTfQ-37" value="" style="endArrow=none;html=1;entryX=1;entryY=0.5;entryDx=0;entryDy=0;" parent="1" source="lMsgz_5FlAVxc4RHLTfQ-34" target="lMsgz_5FlAVxc4RHLTfQ-35" edge="1">
          <mxGeometry width="50" height="50" relative="1" as="geometry">
            <mxPoint x="530" y="230.01" as="sourcePoint"/>
            <mxPoint x="520" y="180" as="targetPoint"/>
          </mxGeometry>
        </mxCell>
        <mxCell id="lMsgz_5FlAVxc4RHLTfQ-38" value="" style="endArrow=none;html=1;entryX=0.65;entryY=0.02;entryDx=0;entryDy=0;exitX=0.156;exitY=1.1;exitDx=0;exitDy=0;exitPerimeter=0;entryPerimeter=0;" parent="1" source="lMsgz_5FlAVxc4RHLTfQ-34" target="lMsgz_5FlAVxc4RHLTfQ-36" edge="1">
          <mxGeometry width="50" height="50" relative="1" as="geometry">
            <mxPoint x="540" y="240.01" as="sourcePoint"/>
            <mxPoint x="530" y="190" as="targetPoint"/>
          </mxGeometry>
        </mxCell>
        <mxCell id="lMsgz_5FlAVxc4RHLTfQ-40" value="" style="endArrow=none;html=1;entryX=0.389;entryY=1.033;entryDx=0;entryDy=0;exitX=0.5;exitY=0;exitDx=0;exitDy=0;entryPerimeter=0;" parent="1" source="lMsgz_5FlAVxc4RHLTfQ-103" target="lMsgz_5FlAVxc4RHLTfQ-1" edge="1">
          <mxGeometry width="50" height="50" relative="1" as="geometry">
            <mxPoint x="122.5" y="255" as="sourcePoint"/>
            <mxPoint x="540" y="200" as="targetPoint"/>
          </mxGeometry>
        </mxCell>
        <mxCell id="6eNMQlemD6CoiYL7Ca_S-3" value="1" style="text;html=1;align=center;verticalAlign=middle;resizable=0;points=[];labelBackgroundColor=#ffffff;" parent="lMsgz_5FlAVxc4RHLTfQ-40" vertex="1" connectable="0">
          <mxGeometry x="0.4007" y="-1" relative="1" as="geometry">
            <mxPoint as="offset"/>
          </mxGeometry>
        </mxCell>
        <mxCell id="lMsgz_5FlAVxc4RHLTfQ-41" value="" style="endArrow=none;html=1;entryX=0.236;entryY=1.029;entryDx=0;entryDy=0;exitX=0.5;exitY=0;exitDx=0;exitDy=0;entryPerimeter=0;" parent="1" source="lMsgz_5FlAVxc4RHLTfQ-103" edge="1">
          <mxGeometry width="50" height="50" relative="1" as="geometry">
            <mxPoint x="560" y="260.01" as="sourcePoint"/>
            <mxPoint x="107.98000000000002" y="291.015" as="targetPoint"/>
          </mxGeometry>
        </mxCell>
        <mxCell id="lMsgz_5FlAVxc4RHLTfQ-65" value="agency company" style="rounded=0;whiteSpace=wrap;html=1;fillColor=#f8cecc;strokeColor=#b85450;" parent="1" vertex="1">
          <mxGeometry x="328.25" y="450" width="83.5" height="30" as="geometry"/>
        </mxCell>
        <mxCell id="lMsgz_5FlAVxc4RHLTfQ-67" value="reputation" style="ellipse;whiteSpace=wrap;html=1;fillColor=#d5e8d4;strokeColor=#82b366;" parent="1" vertex="1">
          <mxGeometry x="348.25" y="550" width="51.75" height="20" as="geometry"/>
        </mxCell>
        <mxCell id="lMsgz_5FlAVxc4RHLTfQ-68" value="number" style="ellipse;whiteSpace=wrap;html=1;fillColor=#d5e8d4;strokeColor=#82b366;" parent="1" vertex="1">
          <mxGeometry x="450" y="550" width="60" height="30" as="geometry"/>
        </mxCell>
        <mxCell id="lMsgz_5FlAVxc4RHLTfQ-71" value="name" style="ellipse;whiteSpace=wrap;html=1;fillColor=#d5e8d4;strokeColor=#82b366;" parent="1" vertex="1">
          <mxGeometry x="245" y="540" width="70" height="40" as="geometry"/>
        </mxCell>
        <mxCell id="lMsgz_5FlAVxc4RHLTfQ-73" value="" style="endArrow=none;html=1;entryX=0.113;entryY=0.953;entryDx=0;entryDy=0;exitX=0.651;exitY=0.053;exitDx=0;exitDy=0;entryPerimeter=0;exitPerimeter=0;" parent="1" source="lMsgz_5FlAVxc4RHLTfQ-71" target="lMsgz_5FlAVxc4RHLTfQ-65" edge="1">
          <mxGeometry width="50" height="50" relative="1" as="geometry">
            <mxPoint x="700" y="497.51" as="sourcePoint"/>
            <mxPoint x="690" y="447.5" as="targetPoint"/>
          </mxGeometry>
        </mxCell>
        <mxCell id="lMsgz_5FlAVxc4RHLTfQ-74" value="" style="endArrow=none;html=1;entryX=0.5;entryY=1;entryDx=0;entryDy=0;exitX=0.5;exitY=0;exitDx=0;exitDy=0;" parent="1" source="lMsgz_5FlAVxc4RHLTfQ-67" target="lMsgz_5FlAVxc4RHLTfQ-65" edge="1">
          <mxGeometry width="50" height="50" relative="1" as="geometry">
            <mxPoint x="710" y="507.51" as="sourcePoint"/>
            <mxPoint x="700" y="457.5" as="targetPoint"/>
          </mxGeometry>
        </mxCell>
        <mxCell id="lMsgz_5FlAVxc4RHLTfQ-75" value="" style="endArrow=none;html=1;entryX=0.902;entryY=0.992;entryDx=0;entryDy=0;exitX=0.5;exitY=0;exitDx=0;exitDy=0;entryPerimeter=0;" parent="1" source="lMsgz_5FlAVxc4RHLTfQ-68" target="lMsgz_5FlAVxc4RHLTfQ-65" edge="1">
          <mxGeometry width="50" height="50" relative="1" as="geometry">
            <mxPoint x="720" y="517.51" as="sourcePoint"/>
            <mxPoint x="710" y="467.5" as="targetPoint"/>
          </mxGeometry>
        </mxCell>
        <mxCell id="lMsgz_5FlAVxc4RHLTfQ-79" value="belongs to" style="rhombus;whiteSpace=wrap;html=1;fillColor=#dae8fc;strokeColor=#6c8ebf;" parent="1" vertex="1">
          <mxGeometry x="165" y="440" width="80" height="50" as="geometry"/>
        </mxCell>
        <mxCell id="lMsgz_5FlAVxc4RHLTfQ-80" value="" style="endArrow=none;html=1;entryX=0.75;entryY=1;entryDx=0;entryDy=0;exitX=0;exitY=0.5;exitDx=0;exitDy=0;" parent="1" source="lMsgz_5FlAVxc4RHLTfQ-79" target="lMsgz_5FlAVxc4RHLTfQ-34" edge="1">
          <mxGeometry width="50" height="50" relative="1" as="geometry">
            <mxPoint x="760" y="460.01" as="sourcePoint"/>
            <mxPoint x="750" y="410" as="targetPoint"/>
          </mxGeometry>
        </mxCell>
        <mxCell id="6eNMQlemD6CoiYL7Ca_S-12" value="m" style="text;html=1;align=center;verticalAlign=middle;resizable=0;points=[];labelBackgroundColor=#ffffff;" parent="lMsgz_5FlAVxc4RHLTfQ-80" vertex="1" connectable="0">
          <mxGeometry x="0.1892" relative="1" as="geometry">
            <mxPoint as="offset"/>
          </mxGeometry>
        </mxCell>
        <mxCell id="lMsgz_5FlAVxc4RHLTfQ-81" value="" style="endArrow=none;html=1;entryX=1;entryY=0.5;entryDx=0;entryDy=0;exitX=0;exitY=0.5;exitDx=0;exitDy=0;" parent="1" source="lMsgz_5FlAVxc4RHLTfQ-65" target="lMsgz_5FlAVxc4RHLTfQ-79" edge="1">
          <mxGeometry width="50" height="50" relative="1" as="geometry">
            <mxPoint x="770" y="567.51" as="sourcePoint"/>
            <mxPoint x="760" y="517.5" as="targetPoint"/>
          </mxGeometry>
        </mxCell>
        <mxCell id="6eNMQlemD6CoiYL7Ca_S-13" value="1" style="text;html=1;align=center;verticalAlign=middle;resizable=0;points=[];labelBackgroundColor=#ffffff;" parent="lMsgz_5FlAVxc4RHLTfQ-81" vertex="1" connectable="0">
          <mxGeometry x="0.3033" y="-2" relative="1" as="geometry">
            <mxPoint as="offset"/>
          </mxGeometry>
        </mxCell>
        <mxCell id="lMsgz_5FlAVxc4RHLTfQ-82" value="write" style="rhombus;whiteSpace=wrap;html=1;fillColor=#dae8fc;strokeColor=#6c8ebf;" parent="1" vertex="1">
          <mxGeometry x="585" y="210" width="85" height="37.5" as="geometry"/>
        </mxCell>
        <mxCell id="lMsgz_5FlAVxc4RHLTfQ-83" value="" style="endArrow=none;html=1;entryX=0.25;entryY=1;entryDx=0;entryDy=0;exitX=0.5;exitY=0;exitDx=0;exitDy=0;" parent="1" source="lMsgz_5FlAVxc4RHLTfQ-82" target="lMsgz_5FlAVxc4RHLTfQ-24" edge="1">
          <mxGeometry width="50" height="50" relative="1" as="geometry">
            <mxPoint x="490" y="592.5" as="sourcePoint"/>
            <mxPoint x="770" y="527.5" as="targetPoint"/>
            <Array as="points"/>
          </mxGeometry>
        </mxCell>
        <mxCell id="6eNMQlemD6CoiYL7Ca_S-1" value="1" style="text;html=1;align=center;verticalAlign=middle;resizable=0;points=[];labelBackgroundColor=#ffffff;" parent="lMsgz_5FlAVxc4RHLTfQ-83" vertex="1" connectable="0">
          <mxGeometry x="0.3975" y="-1" relative="1" as="geometry">
            <mxPoint as="offset"/>
          </mxGeometry>
        </mxCell>
        <mxCell id="lMsgz_5FlAVxc4RHLTfQ-84" value="review" style="rounded=0;whiteSpace=wrap;html=1;fillColor=#f8cecc;strokeColor=#b85450;" parent="1" vertex="1">
          <mxGeometry x="585" y="277.5" width="90" height="30" as="geometry"/>
        </mxCell>
        <mxCell id="lMsgz_5FlAVxc4RHLTfQ-85" value="n" style="endArrow=none;html=1;entryX=0.5;entryY=1;entryDx=0;entryDy=0;exitX=0.5;exitY=0;exitDx=0;exitDy=0;" parent="1" source="lMsgz_5FlAVxc4RHLTfQ-84" target="lMsgz_5FlAVxc4RHLTfQ-82" edge="1">
          <mxGeometry width="50" height="50" relative="1" as="geometry">
            <mxPoint x="628" y="300" as="sourcePoint"/>
            <mxPoint x="860" y="350" as="targetPoint"/>
          </mxGeometry>
        </mxCell>
        <mxCell id="lMsgz_5FlAVxc4RHLTfQ-86" value="ID" style="ellipse;whiteSpace=wrap;html=1;fillColor=#d5e8d4;strokeColor=#82b366;" parent="1" vertex="1">
          <mxGeometry x="550" y="350" width="50" height="30" as="geometry"/>
        </mxCell>
        <mxCell id="lMsgz_5FlAVxc4RHLTfQ-87" value="content" style="ellipse;whiteSpace=wrap;html=1;fillColor=#d5e8d4;strokeColor=#82b366;" parent="1" vertex="1">
          <mxGeometry x="605" y="350" width="50" height="40" as="geometry"/>
        </mxCell>
        <mxCell id="lMsgz_5FlAVxc4RHLTfQ-88" value="number" style="ellipse;whiteSpace=wrap;html=1;fillColor=#d5e8d4;strokeColor=#82b366;" parent="1" vertex="1">
          <mxGeometry x="660" y="352.5" width="40" height="30" as="geometry"/>
        </mxCell>
        <mxCell id="lMsgz_5FlAVxc4RHLTfQ-89" value="" style="endArrow=none;html=1;entryX=0.25;entryY=1;entryDx=0;entryDy=0;exitX=0.5;exitY=0;exitDx=0;exitDy=0;" parent="1" source="lMsgz_5FlAVxc4RHLTfQ-86" target="lMsgz_5FlAVxc4RHLTfQ-84" edge="1">
          <mxGeometry width="50" height="50" relative="1" as="geometry">
            <mxPoint x="800" y="555.01" as="sourcePoint"/>
            <mxPoint x="790" y="505" as="targetPoint"/>
          </mxGeometry>
        </mxCell>
        <mxCell id="lMsgz_5FlAVxc4RHLTfQ-90" value="" style="endArrow=none;html=1;entryX=0.5;entryY=1;entryDx=0;entryDy=0;exitX=0.5;exitY=0;exitDx=0;exitDy=0;" parent="1" source="lMsgz_5FlAVxc4RHLTfQ-87" target="lMsgz_5FlAVxc4RHLTfQ-84" edge="1">
          <mxGeometry width="50" height="50" relative="1" as="geometry">
            <mxPoint x="810" y="565.01" as="sourcePoint"/>
            <mxPoint x="800" y="515" as="targetPoint"/>
          </mxGeometry>
        </mxCell>
        <mxCell id="lMsgz_5FlAVxc4RHLTfQ-91" value="" style="endArrow=none;html=1;entryX=0.75;entryY=1;entryDx=0;entryDy=0;exitX=0.5;exitY=0;exitDx=0;exitDy=0;" parent="1" source="lMsgz_5FlAVxc4RHLTfQ-88" target="lMsgz_5FlAVxc4RHLTfQ-84" edge="1">
          <mxGeometry width="50" height="50" relative="1" as="geometry">
            <mxPoint x="820" y="575.01" as="sourcePoint"/>
            <mxPoint x="810" y="525" as="targetPoint"/>
          </mxGeometry>
        </mxCell>
        <mxCell id="lMsgz_5FlAVxc4RHLTfQ-92" value="is prerequisites" style="rhombus;whiteSpace=wrap;html=1;fillColor=#dae8fc;strokeColor=#6c8ebf;" parent="1" vertex="1">
          <mxGeometry x="150" y="210" width="90" height="50" as="geometry"/>
        </mxCell>
        <mxCell id="lMsgz_5FlAVxc4RHLTfQ-93" value="" style="endArrow=none;html=1;entryX=1;entryY=1;entryDx=0;entryDy=0;exitX=1;exitY=0.5;exitDx=0;exitDy=0;" parent="1" source="lMsgz_5FlAVxc4RHLTfQ-92" target="lMsgz_5FlAVxc4RHLTfQ-1" edge="1">
          <mxGeometry width="50" height="50" relative="1" as="geometry">
            <mxPoint x="185" y="265" as="sourcePoint"/>
            <mxPoint x="235" y="215" as="targetPoint"/>
          </mxGeometry>
        </mxCell>
        <mxCell id="6eNMQlemD6CoiYL7Ca_S-5" value="n" style="text;html=1;align=center;verticalAlign=middle;resizable=0;points=[];labelBackgroundColor=#ffffff;" parent="lMsgz_5FlAVxc4RHLTfQ-93" vertex="1" connectable="0">
          <mxGeometry x="0.1694" relative="1" as="geometry">
            <mxPoint as="offset"/>
          </mxGeometry>
        </mxCell>
        <mxCell id="lMsgz_5FlAVxc4RHLTfQ-96" value="gender" style="ellipse;whiteSpace=wrap;html=1;fillColor=#d5e8d4;strokeColor=#82b366;" parent="1" vertex="1">
          <mxGeometry x="720" y="90" width="60" height="40" as="geometry"/>
        </mxCell>
        <mxCell id="lMsgz_5FlAVxc4RHLTfQ-97" value="" style="endArrow=none;html=1;entryX=1;entryY=0;entryDx=0;entryDy=0;exitX=0;exitY=0;exitDx=0;exitDy=0;" parent="1" source="lMsgz_5FlAVxc4RHLTfQ-96" target="lMsgz_5FlAVxc4RHLTfQ-24" edge="1">
          <mxGeometry width="50" height="50" relative="1" as="geometry">
            <mxPoint x="665" y="302.5" as="sourcePoint"/>
            <mxPoint x="715" y="252.5" as="targetPoint"/>
          </mxGeometry>
        </mxCell>
        <mxCell id="lMsgz_5FlAVxc4RHLTfQ-98" value="take" style="rhombus;whiteSpace=wrap;html=1;fillColor=#dae8fc;strokeColor=#6c8ebf;" parent="1" vertex="1">
          <mxGeometry x="350" y="90" width="60" height="35" as="geometry"/>
        </mxCell>
        <mxCell id="lMsgz_5FlAVxc4RHLTfQ-99" value="" style="endArrow=none;html=1;exitX=1;exitY=0.25;exitDx=0;exitDy=0;entryX=0;entryY=0.5;entryDx=0;entryDy=0;" parent="1" source="lMsgz_5FlAVxc4RHLTfQ-1" target="lMsgz_5FlAVxc4RHLTfQ-98" edge="1">
          <mxGeometry width="50" height="50" relative="1" as="geometry">
            <mxPoint x="190" y="135" as="sourcePoint"/>
            <mxPoint x="240" y="85" as="targetPoint"/>
          </mxGeometry>
        </mxCell>
        <mxCell id="6eNMQlemD6CoiYL7Ca_S-9" value="n" style="text;html=1;align=center;verticalAlign=middle;resizable=0;points=[];labelBackgroundColor=#ffffff;" parent="lMsgz_5FlAVxc4RHLTfQ-99" vertex="1" connectable="0">
          <mxGeometry x="0.0564" y="-1" relative="1" as="geometry">
            <mxPoint as="offset"/>
          </mxGeometry>
        </mxCell>
        <mxCell id="lMsgz_5FlAVxc4RHLTfQ-100" value="" style="endArrow=none;html=1;exitX=1;exitY=0.5;exitDx=0;exitDy=0;entryX=0;entryY=0.25;entryDx=0;entryDy=0;" parent="1" source="lMsgz_5FlAVxc4RHLTfQ-98" target="lMsgz_5FlAVxc4RHLTfQ-24" edge="1">
          <mxGeometry width="50" height="50" relative="1" as="geometry">
            <mxPoint x="480" y="110" as="sourcePoint"/>
            <mxPoint x="530" y="60" as="targetPoint"/>
          </mxGeometry>
        </mxCell>
        <mxCell id="6eNMQlemD6CoiYL7Ca_S-8" value="m" style="text;html=1;align=center;verticalAlign=middle;resizable=0;points=[];labelBackgroundColor=#ffffff;" parent="lMsgz_5FlAVxc4RHLTfQ-100" vertex="1" connectable="0">
          <mxGeometry x="0.0841" y="-2" relative="1" as="geometry">
            <mxPoint as="offset"/>
          </mxGeometry>
        </mxCell>
        <mxCell id="lMsgz_5FlAVxc4RHLTfQ-103" value="teach" style="rhombus;whiteSpace=wrap;html=1;fillColor=#dae8fc;strokeColor=#6c8ebf;" parent="1" vertex="1">
          <mxGeometry x="80" y="252.5" width="80" height="47.5" as="geometry"/>
        </mxCell>
        <mxCell id="lMsgz_5FlAVxc4RHLTfQ-104" value="" style="endArrow=none;html=1;entryX=0.5;entryY=1;entryDx=0;entryDy=0;exitX=0.5;exitY=0;exitDx=0;exitDy=0;" parent="1" source="lMsgz_5FlAVxc4RHLTfQ-34" target="lMsgz_5FlAVxc4RHLTfQ-103" edge="1">
          <mxGeometry width="50" height="50" relative="1" as="geometry">
            <mxPoint x="105" y="370" as="sourcePoint"/>
            <mxPoint x="107.98000000000002" y="291.015" as="targetPoint"/>
          </mxGeometry>
        </mxCell>
        <mxCell id="6eNMQlemD6CoiYL7Ca_S-2" value="1" style="text;html=1;align=center;verticalAlign=middle;resizable=0;points=[];labelBackgroundColor=#ffffff;" parent="lMsgz_5FlAVxc4RHLTfQ-104" vertex="1" connectable="0">
          <mxGeometry x="0.7091" relative="1" as="geometry">
            <mxPoint y="9" as="offset"/>
          </mxGeometry>
        </mxCell>
        <mxCell id="lMsgz_5FlAVxc4RHLTfQ-105" value="email address" style="ellipse;whiteSpace=wrap;html=1;fillColor=#d5e8d4;strokeColor=#82b366;" parent="1" vertex="1">
          <mxGeometry x="60" y="410" width="50" height="30" as="geometry"/>
        </mxCell>
        <mxCell id="lMsgz_5FlAVxc4RHLTfQ-106" value="" style="endArrow=none;html=1;entryX=0.5;entryY=0;entryDx=0;entryDy=0;exitX=0.5;exitY=1;exitDx=0;exitDy=0;" parent="1" source="lMsgz_5FlAVxc4RHLTfQ-34" target="lMsgz_5FlAVxc4RHLTfQ-105" edge="1">
          <mxGeometry width="50" height="50" relative="1" as="geometry">
            <mxPoint x="110" y="480" as="sourcePoint"/>
            <mxPoint x="142.5" y="357.5" as="targetPoint"/>
          </mxGeometry>
        </mxCell>
        <mxCell id="lMsgz_5FlAVxc4RHLTfQ-107" value="affiliation" style="ellipse;whiteSpace=wrap;html=1;fillColor=#d5e8d4;strokeColor=#82b366;" parent="1" vertex="1">
          <mxGeometry x="210" y="355" width="50" height="30" as="geometry"/>
        </mxCell>
        <mxCell id="lMsgz_5FlAVxc4RHLTfQ-108" value="profile picture" style="ellipse;whiteSpace=wrap;html=1;fillColor=#d5e8d4;strokeColor=#82b366;" parent="1" vertex="1">
          <mxGeometry x="210" y="307.5" width="60" height="40" as="geometry"/>
        </mxCell>
        <mxCell id="lMsgz_5FlAVxc4RHLTfQ-109" value="" style="endArrow=none;html=1;entryX=0;entryY=0.5;entryDx=0;entryDy=0;exitX=1;exitY=0.25;exitDx=0;exitDy=0;" parent="1" source="lMsgz_5FlAVxc4RHLTfQ-34" target="lMsgz_5FlAVxc4RHLTfQ-108" edge="1">
          <mxGeometry width="50" height="50" relative="1" as="geometry">
            <mxPoint x="-30" y="800" as="sourcePoint"/>
            <mxPoint x="20" y="750" as="targetPoint"/>
          </mxGeometry>
        </mxCell>
        <mxCell id="lMsgz_5FlAVxc4RHLTfQ-110" value="" style="endArrow=none;html=1;entryX=0;entryY=0;entryDx=0;entryDy=0;exitX=1;exitY=0.5;exitDx=0;exitDy=0;" parent="1" source="lMsgz_5FlAVxc4RHLTfQ-34" target="lMsgz_5FlAVxc4RHLTfQ-107" edge="1">
          <mxGeometry width="50" height="50" relative="1" as="geometry">
            <mxPoint x="-30" y="800" as="sourcePoint"/>
            <mxPoint x="20" y="750" as="targetPoint"/>
          </mxGeometry>
        </mxCell>
      </root>
    </mxGraphModel>
  </diagram>
</mxfile>
